<?xml version="1.0" encoding="utf-8"?>
<!-- Generator: Adobe Illustrator 25.4.2, SVG Export Plug-In . SVG Version: 6.00 Build 0)  -->
<svg version="1.1" id="Layer_1" xmlns="http://www.w3.org/2000/svg" xmlns:xlink="http://www.w3.org/1999/xlink" x="0px" y="0px"
	 viewBox="0 0 1857.6 770.5" style="enable-background:new 0 0 1857.6 770.5;" xml:space="preserve">
<g id="Borders_Titles">
	<path d="M391.2,122.6l58.5-106.1H0v580.3h384.7l-58.5-106.1H115.6V357.3h202l32.5-106.2H115.6V122.6H391.2z M670.7,94.8v142.3
		c-19.8-23.7-45.7-41.4-80.4-48.9c-12.4-2.5-25-3.8-37.7-3.8c-111.1,0-194.4,90.8-194.4,211.4c0,7.9,0.4,15.7,1.1,23.4
		c9.9,108.8,89.5,187.9,193.2,187.9c55.1,0,93.7-21.9,120.2-54.7v44.4h105.7V0L670.7,94.8z M572.5,506.5
		c-63.4,0-103.6-49.3-103.6-110.7s40.2-110.7,103.6-110.7c61.8,0,103.7,47.3,103.7,110.7S634.3,506.5,572.5,506.5z M1128.5,195.2
		v44.8c-27.8-34.4-68-55.5-124.3-55.5c-97.8,0-184.9,81.6-184.9,205.2c0,123.1,87.1,204.7,184.9,204.7c4.1,0,8.1-0.1,12-0.4h13.1
		c49.7-2.7,72.7-22.8,98.5-53.8v28.2c0,69.7-47.3,106.5-114.4,106.5c-23,0.1-45.8-3.3-67.8-10.1L871.1,739
		c42.5,20.8,95.7,31.5,146.7,31.5c132.6,0,216.8-77.5,216.8-206.8V195.2L1128.5,195.2z M1031.5,494.9
		c-61.7,0-101.1-47.3-101.1-105.3c0-58.5,39.4-105.7,101.1-105.7c60.1,0,100.8,45.6,100.8,105.7
		C1132.3,449.2,1091.6,494.9,1031.5,494.9L1031.5,494.9z M1280.7,290.4v306.4h108.2V195.2L1280.7,290.4z M1640,184.4
		c-124.8,0-216.8,90.4-216.8,211.4s92,211.4,216.8,211.4c125.2,0,217.6-90.4,217.6-211.4S1765.2,184.4,1640,184.4L1640,184.4z
		 M1640,506.4c-60.9,0-106.6-45.6-106.6-110.7s45.6-110.6,106.6-110.6c61.3,0,106.9,45.6,106.9,110.7S1701.3,506.5,1640,506.4
		L1640,506.4z M1388.9,168.6h-108.2V60.5h108.2V168.6z"/>
</g>
</svg>
